<svg id="圖層_1" data-name="圖層 1" xmlns="http://www.w3.org/2000/svg" viewBox="0 0 268.05 73.33"><defs><style>.cls-1{fill:#3e3a39;}.cls-2{fill:#f2cabc;}.cls-3{fill:#c4e0e0;}.cls-4{fill:#c59f0f;}.cls-5{fill:#e5c728;}.cls-6{fill:#de8281;}</style></defs><title>kagogawa-recycle-web-logo</title><path class="cls-1" d="M94.94,59.56c0,.8-4.85,1.46-10.83,1.46s-10.83-.66-10.83-1.46,4.85-1.47,10.83-1.47S94.94,58.75,94.94,59.56Z"/><path class="cls-1" d="M162.42,59.56c0,.8-4.85,1.46-10.83,1.46s-10.83-.66-10.83-1.46,4.85-1.47,10.83-1.47S162.42,58.75,162.42,59.56Z"/><rect class="cls-2" x="3.58" y="33.03" width="6.23" height="27.52"/><polygon class="cls-3" points="63.85 47.2 54.66 47.2 55.44 49.05 64.78 49.05 63.85 47.2"/><polygon class="cls-3" points="56.52 51.61 66.08 51.61 65.15 49.77 55.74 49.77 56.52 51.61"/><polygon class="cls-3" points="57.59 54.18 67.38 54.18 66.44 52.33 56.82 52.33 57.59 54.18"/><polygon class="cls-3" points="58.67 56.74 68.67 56.74 67.74 54.9 57.9 54.9 58.67 56.74"/><polygon class="cls-3" points="59.75 59.31 69.97 59.31 69.03 57.46 58.98 57.46 59.75 59.31"/><polygon class="cls-2" points="258.81 47.65 249.62 47.65 250.4 49.49 259.75 49.49 258.81 47.65"/><polygon class="cls-2" points="251.47 52.06 261.04 52.06 260.11 50.21 250.7 50.21 251.47 52.06"/><polygon class="cls-2" points="252.55 54.62 262.34 54.62 261.4 52.78 251.78 52.78 252.55 54.62"/><polygon class="cls-2" points="253.63 57.19 263.63 57.19 262.7 55.34 252.86 55.34 253.63 57.19"/><polygon class="cls-2" points="254.71 59.75 264.93 59.75 263.99 57.91 253.94 57.91 254.71 59.75"/><polygon class="cls-4" points="72.98 51.16 63.21 24.94 64.15 24.59 73.57 49.87 77.69 48.3 78.04 49.23 72.98 51.16"/><polygon class="cls-4" points="88.89 45.16 79.93 38.84 80.51 38.03 89.05 44.05 93.56 42.54 93.88 43.49 88.89 45.16"/><path class="cls-3" d="M152.44,20.74h2V14.21h-2a18,18,0,0,0,0,36h2v-6.5h-2c-5.19,0-10.7-4-10.7-11.45C141.74,26,146.64,20.74,152.44,20.74Z"/><polygon class="cls-2" points="51.59 34.1 47.72 41.52 55.05 41.52 51.59 34.1"/><polygon class="cls-2" points="214.92 36.63 211.05 44.05 218.38 44.05 214.92 36.63"/><polygon class="cls-3" points="245.84 35.82 241.97 43.24 249.3 43.24 245.84 35.82"/><circle class="cls-5" cx="183.83" cy="48.48" r="8.37"/><rect class="cls-6" x="158.72" y="30.98" width="16.67" height="1"/><rect class="cls-6" x="158.72" y="33.32" width="16.67" height="1"/><rect class="cls-2" x="120.7" y="54.4" width="10.36" height="1"/><rect class="cls-2" x="120.7" y="56.74" width="9.04" height="1"/><path class="cls-1" d="M34.9,62.13H24.61L16.66,50.36V62.13H6.58V30H16.66V41L23.4,30h10L23.8,45.66Zm-9.75-1H33L22.6,45.67,31.6,31H24L15.7,44.51V31H7.58V61.13h8.08v-14Z"/><path class="cls-1" d="M68.41,62.13H56.8l-5.4-13-5.4,13H34.57L51.49,28.62Zm-10.94-1h9.31L51.49,30.84,36.19,61.13h9.09L51.4,46.59Z"/><path class="cls-1" d="M71.83,53.47,60.7,23.31l9.45-3.48L74,30.11l2.52-12.62L85.84,14,82.26,32,98.39,43.67l-9.65,3.56L77.2,38.94l4.08,11ZM62,23.91,72.42,52.19,80,49.39,75.13,36.22,88.9,46.11l7.38-2.73L81.15,32.49l3.36-16.9-7.17,2.65L74.23,33.78,69.56,21.11Z"/><path class="cls-1" d="M153.51,48.58a16.23,16.23,0,0,1-16.25-16.21V32a16.53,16.53,0,0,1,27.25-12.57l.41.35-7,7-.35-.26a6.13,6.13,0,0,0-3.79-1.32,6.7,6.7,0,0,0-6.4,6.8c0,3.94,2.58,6.8,6.13,6.8a7,7,0,0,0,4.42-1.58h-4.21V28.71h15.95V32a16.25,16.25,0,0,1-15.91,16.57Zm.26-32.09A15.54,15.54,0,0,0,138.26,32a15.25,15.25,0,0,0,30.5,0V29.7h-14v6.52h5.42l-.63.81a7.72,7.72,0,0,1-6,2.77c-4.13,0-7.13-3.28-7.13-7.8a7.71,7.71,0,0,1,7.39-7.79,7.15,7.15,0,0,1,4,1.26l5.62-5.62a15.54,15.54,0,0,0-9.66-3.36Z"/><path class="cls-1" d="M200.75,62.13h-11.6l-5.41-13-5.45,13H166.91l16.92-33.51Zm-10.93-1h9.31l-15.3-30.29L168.54,61.13h9.09l6.12-14.54Z"/><path class="cls-1" d="M206.71,63.44,195,30h9.88l3.75,12.33,5.94-11.82,6.15,12.09,3.8-12.6h9.89l-12,33.45L214.58,48Zm7.87-17.69,7.66,15.15L233,31h-7.73L221,45.26l-6.39-12.55L208.41,45l-4.26-14h-7.73l10.46,29.91Z"/><path class="cls-1" d="M262.56,62.13H251l-5.41-13-5.45,13H228.72l16.92-33.51Zm-10.94-1h9.31L245.64,30.84l-15.3,30.29h9.09l6.12-14.54Z"/><polygon class="cls-3" points="224.14 22.22 203.56 22.22 207.39 18.62 227.98 18.62 224.14 22.22"/><path class="cls-1" d="M219.73,20.92h-3.37l.84-5.64h-1.26l-.82,5.64h-3.37l.84-5.64H210V11.93h3.08l.2-1.22h-2.54V7.37h3l.77-5.23h3.31l-.73,5.23h1.24l.77-5.23h3.37l-.77,5.23H224v3.34h-2.78l-.16,1.22h2.27v3.35h-2.78Zm-2.21-1h1.35l.83-5.64h2.65V12.93h-2.42l.44-3.22H223V8.37h-2.45l.77-5.23H220l-.77,5.23H216l.72-5.23h-1.29l-.78,5.23h-2.88V9.71h2.71L214,12.93h-3v1.35h2.74l-.84,5.64h1.35l.82-5.64h3.27Zm1-7h-3.28l.47-3.22H219Zm-2.12-1h1.26l.18-1.22h-1.26Z"/><rect class="cls-5" x="123.6" y="30.57" width="0.99" height="8.72" transform="translate(-2.04 61.58) rotate(-27.65)"/><rect class="cls-5" x="121.36" y="30.89" width="0.99" height="9.52" transform="translate(-2.63 60.62) rotate(-27.65)"/><circle class="cls-3" cx="109.41" cy="42.23" r="4.02"/><path class="cls-1" d="M115.79,40.43l-7-4.46,2-3.24a4,4,0,0,1,3.35-1.89H117l2,3.74Zm-5.7-4.77,5.35,3.41,2.48-4.5-1.47-2.77h-2.34a2.94,2.94,0,0,0-2.52,1.43Z"/><path class="cls-1" d="M127.63,44l-10.11-1.15,3.64-2.18L116,30.84h7.54a3.62,3.62,0,0,1,3.22,1.94l1.93,3.31,3.76-1.91Zm-7.19-1.78,6.62.75,3.23-6.66-2,1-2.39-4.1a2.65,2.65,0,0,0-2.39-1.45h-5.94l4.89,9.25Z"/><path class="cls-1" d="M132.74,52.59h-5.05l-3.17-5.71,7.59-4.43,2,4.07a3.93,3.93,0,0,1-.1,3.95Zm-4.48-1h3.94l1-1.67a2.94,2.94,0,0,0,.06-3v0l-1.59-3.17-5.9,3.44Z"/><path class="cls-1" d="M125.8,61h-6.53L115,55.46l6.72-7.4v3.57h11.6L129,59.1A3.54,3.54,0,0,1,125.8,61Zm-6.06-1h6a2.59,2.59,0,0,0,2.38-1.42l3.52-6H120.75V50.54l-4.51,5Z"/><path class="cls-1" d="M113.28,61h-2.72a4.09,4.09,0,0,1-3.45-2l-1.83-3.18.12-.27,2-3.39h5.92Zm-6.91-5.2,1.57,2.73a3.09,3.09,0,0,0,2.62,1.51h1.76V53.15h-4.41Z"/><path class="cls-1" d="M105.82,56.78l-.42-.71-3.13-5.4a3.94,3.94,0,0,1,0-3.85L104.15,43,100,40.49l10.82-.68,4,8.68-3.49-1.35ZM103.1,41.26l2.3,1.43-2.28,4.58a3,3,0,0,0,0,2.92l2.7,4.68L111,46l2,.79-2.73-5.93Z"/></svg>